#!OML:ASF H:\Punching\Project 1\Capture day 1\Session 1\female.ASF
:FULLY-SPECIFIED
:DEGREES
2044
root 0.289987 14.663 -0.121256 18.3669 -35.1227 -5.89356
lowerback -2.58109 3.00467 3.75581
upperback -7.59659 4.07135 1.43986
thorax -6.30884 1.82032 -0.702758
lowerneck -8.01811 10.7045 18.2293
upperneck 32.9264 16.7606 -14.5401
head 16.0236 7.83717 -6.46576
rclavicle -1.48405e-014 1.98785e-015
rhumerus 13.4954 25.2815 -70.457
rradius 126.015
rwrist -8.54747
rhand -32.1893 5.95217
rfingers 7.12502
rthumb -5.43153 -23.9582
lclavicle -1.48405e-014 1.98785e-015
lhumerus 6.6998 -5.56049 57.3657
lradius 138.713
lwrist 0.812314
lhand -29.6145 3.45903
lfingers 7.12502
lthumb -2.94519 33.4184
rfemur -5.23598 9.63945 7.50439
rtibia 30.914
rfoot -18.6914 -21.4952
rtoes -24.1766
lfemur -49.9503 9.26571 -10.1922
ltibia 54.8939
lfoot -14.4558 18.962
ltoes 2.52136
2045
root 0.233762 14.6515 -0.256943 18.493 -35.3545 -5.91283
lowerback -2.6116 2.83771 3.75339
upperback -7.5854 3.8385 1.31231
thorax -6.27833 1.7007 -0.82658
lowerneck -7.71431 10.8915 18.4296
upperneck 32.6741 17.0869 -14.7424
head 15.9601 7.99019 -6.51884
rclavicle -3.45295e-014 -5.76476e-015
rhumerus 13.6102 25.6862 -70.8177
rradius 125.829
rwrist -8.25914
rhand -32.0858 5.77992
rfingers 7.12502
rthumb -5.33157 -24.133
lclavicle -3.45295e-014 -5.76476e-015
lhumerus 6.76758 -5.04784 57.2795
lradius 138.713
lwrist 0.802843
lhand -29.6067 3.49688
lfingers 7.12502
lthumb -2.93764 33.4564
rfemur -5.24681 9.27904 7.82616
rtibia 30.3491
rfoot -20.0788 -21.3331
rtoes -24.5498
lfemur -50.0843 9.33921 -9.58583
ltibia 54.5051
lfoot -13.9643 19.1749
ltoes 2.61567
2046
root 0.176871 14.6415 -0.394834 18.5566 -35.5097 -5.90463
lowerback -2.60294 2.64908 3.74872
upperback -7.56211 3.57859 1.17951
thorax -6.2593 1.56761 -0.955922
lowerneck -7.42327 11.0722 18.6212
upperneck 32.439 17.4006 -14.9298
head 15.9043 8.13816 -6.56669
rclavicle 1.05107e-014 8.44835e-015
rhumerus 13.7156 26.095 -71.1748
rradius 125.652
rwrist -7.95707
rhand -31.9953 5.64336
rfingers 7.12502
rthumb -5.24417 -24.2718
lclavicle 1.05107e-014 8.44835e-015
lhumerus 6.83172 -4.58632 57.217
lradius 138.699
lwrist 0.759199
lhand -29.6486 3.50373
lfingers 7.12502
lthumb -2.97806 33.4627
rfemur -5.23803 8.99341 8.17163
rtibia 29.8085
rfoot -21.3394 -21.1332
rtoes -24.8366
lfemur -50.1415 9.32315 -8.96636
ltibia 54.0323
lfoot -13.4435 19.3896
ltoes 2.81097
2047
root 0.119468 14.6334 -0.534278 18.5765 -35.59 -5.90116
lowerback -2.55151 2.44285 3.75866
upperback -7.52941 3.29806 1.05481
thorax -6.25675 1.42354 -1.08625
lowerneck -7.14645 11.247 18.8025
upperneck 32.2258 17.7046 -15.1071
head 15.8598 8.28157 -6.61088
rclavicle -9.25731e-014 -2.75814e-014
rhumerus 13.8145 26.5102 -71.5173
rradius 125.486
rwrist -7.64777
rhand -31.9131 5.5239
rfingers 7.12502
rthumb -5.16483 -24.3932
lclavicle -9.25731e-014 -2.75814e-014
lhumerus 6.88324 -4.17044 57.1942
lradius 138.673
lwrist 0.700657
lhand -29.7057 3.43404
lfingers 7.12502
lthumb -3.03325 33.3922
rfemur -5.2026 8.79829 8.57001
rtibia 29.299
rfoot -22.4386 -20.9629
rtoes -25.1055
lfemur -50.1285 9.22571 -8.30343
ltibia 53.4906
lfoot -12.9097 19.5982
ltoes 3.14092
2048
root 0.0618619 14.6272 -0.674564 18.5742 -35.6041 -5.93141
lowerback -2.46909 2.2264 3.80333
upperback -7.47957 3.00651 0.945692
thorax -6.25502 1.27281 -1.22005
lowerneck -6.90255 11.4182 18.9678
upperneck 32.031 18.0003 -15.2737
head 15.8283 8.41931 -6.6487
rclavicle 8.79711e-014 2.86126e-014
rhumerus 13.9309 26.926 -71.8335
rradius 125.325
rwrist -7.33754
rhand -31.8544 5.42707
rfingers 7.12502
rthumb -5.10816 -24.4914
lclavicle 8.79711e-014 2.86126e-014
lhumerus 6.93542 -3.78951 57.2146
lradius 138.634
lwrist 0.633072
lhand -29.7631 3.2755
lfingers 7.12502
lthumb -3.08871 33.2329
rfemur -5.14266 8.67278 9.04219
rtibia 28.8312
rfoot -23.3875 -20.8479
rtoes -25.2918
lfemur -50.0512 9.06564 -7.57902
ltibia 52.8961
lfoot -12.3699 19.7972
ltoes 3.56922
2049
root 0.00436457 14.6229 -0.814953 18.5793 -35.5622 -6.03399
lowerback -2.36366 2.00317 3.90566
upperback -7.41802 2.70922 0.86626
thorax -6.25542 1.11704 -1.35505
lowerneck -6.67591 11.5888 19.1265
upperneck 31.8508 18.2957 -15.4389
head 15.8086 8.55576 -6.68465
rclavicle -6.27725e-015 1.69961e-014
rhumerus 14.063 27.3526 -72.1218
rradius 125.178
rwrist -7.04297
rhand -31.8222 5.36682
rfingers 7.12502
rthumb -5.07704 -24.5524
lclavicle -6.27725e-015 1.69961e-014
lhumerus 6.95213 -3.4403 57.2897
lradius 138.595
lwrist 0.537616
lhand -29.8212 3.00479
lfingers 7.12502
lthumb -3.14479 32.9613
rfemur -5.06751 8.58498 9.61621
rtibia 28.4094
rfoot -24.2326 -20.7789
rtoes -25.2508
lfemur -49.9236 8.86736 -6.76569
ltibia 52.2684
lfoot -11.8395 19.9856
ltoes 4.0771
2050
root -0.0526077 14.6207 -0.954309 18.6249 -35.4771 -6.23395
lowerback -2.25799 1.78886 4.09291
upperback -7.35325 2.42678 0.820229
thorax -6.25271 0.965016 -1.50227
lowerneck -6.44961 11.7475 19.255
upperneck 31.682 18.578 -15.5971
head 15.7875 8.68417 -6.71586
rclavicle -3.3621e-014 -4.17448e-015
rhumerus 14.1913 27.7848 -72.3656
rradius 125.039
rwrist -6.74544
rhand -31.8318 5.33571
rfingers 7.12502
rthumb -5.08628 -24.5833
lclavicle -3.3621e-014 -4.17448e-015
lhumerus 6.94486 -3.13027 57.434
lradius 138.546
lwrist 0.417053
lhand -29.8545 2.61648
lfingers 7.12502
lthumb -3.17695 32.5726
rfemur -5.0013 8.50983 10.3037
rtibia 28.0277
rfoot -24.9875 -20.7458
rtoes -24.8877
lfemur -49.7686 8.65488 -5.85201
ltibia 51.6249
lfoot -11.3315 20.1635
ltoes 4.65164
